<svg width="437" height="354" viewBox="0 0 437 354" fill="none" xmlns="http://www.w3.org/2000/svg">
<path d="M131.046 173.381H89.7656" stroke="#000103" stroke-width="1.03421" stroke-miterlimit="10"/>
<path d="M129.25 179.213H101.213" stroke="#000103" stroke-width="1.03421" stroke-miterlimit="10"/>
<path d="M260.223 12.578C260.223 12.578 230.092 -11.4621 200.353 9.24785C197.002 12.4539 196.356 18.685 198.543 22.3254C202.66 29.1822 212.676 28.2359 212.453 35.1237C212.231 42.0115 191.185 48.5373 222.64 63.4454" fill="black"/>
<path d="M370.94 312.818C370.314 311.623 368.804 311.214 367.573 311.902C367.548 311.918 367.527 311.938 367.501 311.954L367.496 311.949C351.311 321.722 332.503 327.364 312.673 327.364H124.799C107.021 327.364 90.5407 322.823 76.3979 314.845C75.6533 314.26 74.5777 314.162 73.6573 314.679C72.4266 315.367 71.9353 316.897 72.5662 318.092C72.8248 318.583 73.2281 318.93 73.7038 319.136L73.6883 319.162C88.0948 327.172 104.885 331.728 122.994 331.728H313.96C334.117 331.728 353.229 326.081 369.673 316.313C369.735 316.287 369.797 316.267 369.854 316.23C371.079 315.537 371.571 314.012 370.94 312.818Z" fill="#000103"/>
<path d="M131.036 335.133C126.092 335.133 121.878 339.146 121.614 344.089C121.355 349.033 125.151 353.04 130.095 353.04C135.048 353.04 139.263 349.038 139.521 344.089C139.78 339.146 135.984 335.133 131.036 335.133ZM130.307 349.012C127.592 349.012 125.503 346.804 125.647 344.084C125.792 341.364 128.109 339.161 130.824 339.161C133.544 339.161 135.633 341.364 135.493 344.084C135.348 346.804 133.026 349.012 130.307 349.012Z" fill="#000103"/>
<path d="M310.404 335.133C305.461 335.133 301.236 339.146 300.977 344.089C300.719 349.033 304.519 353.04 309.463 353.04C314.406 353.04 318.621 349.038 318.879 344.089C319.143 339.146 315.353 335.133 310.404 335.133ZM309.68 349.012C306.96 349.012 304.871 346.804 305.011 344.084C305.155 341.364 307.472 339.161 310.192 339.161C312.907 339.161 315.001 341.364 314.861 344.084C314.717 346.804 312.395 349.012 309.68 349.012Z" fill="#000103"/>
<path d="M304.942 160.729C305.767 160.729 306.436 160.06 306.436 159.235C306.436 158.409 305.767 157.74 304.942 157.74C304.116 157.74 303.447 158.409 303.447 159.235C303.447 160.06 304.116 160.729 304.942 160.729Z" fill="#000103"/>
<path d="M257.985 101.469C259.222 101.469 260.224 100.378 260.224 99.0332C260.224 97.6881 259.222 96.5977 257.985 96.5977C256.749 96.5977 255.746 97.6881 255.746 99.0332C255.746 100.378 256.749 101.469 257.985 101.469Z" fill="#000103"/>
<path d="M259.384 114.73C260.62 114.73 261.623 113.64 261.623 112.295C261.623 110.95 260.62 109.859 259.384 109.859C258.147 109.859 257.145 110.95 257.145 112.295C257.145 113.64 258.147 114.73 259.384 114.73Z" fill="#000103"/>
<path d="M124.359 196.438C124.359 196.438 125.197 204.949 138.668 208.006C163.266 183.407 158.664 179.715 158.664 179.715C158.664 179.715 140.881 182.626 133.724 187.29C126.567 191.955 124.359 196.438 124.359 196.438Z" fill="#000103"/>
<path d="M229.005 301.137L268.734 319.939C271.661 321.293 273.295 324.479 272.695 327.638L197.327 327.457L197.219 301.716L229.005 301.137Z" fill="#000103"/>
<path d="M167.801 327.639H153.193C140.028 327.639 132.54 314.21 129.349 303.795C126.159 293.386 119.4 270.411 119.4 270.411L146.31 261.336L155.944 286.472C155.944 286.472 154.439 296.892 152.914 302.844C151.388 308.796 155.158 316.826 160.407 319.122L164.849 321.061C166.643 321.842 167.801 323.616 167.801 325.57V327.639Z" fill="#000103"/>
<path d="M220.67 233.613L206.6 268.068L170.196 282.009L153.488 257.855L172.316 245.501C172.316 245.501 198.518 238.733 220.67 233.613Z" fill="#000103"/>
<path d="M261.925 246.876L261.273 247.124C261.423 246.896 261.568 246.669 261.718 246.441L261.925 246.876Z" fill="#000103"/>
<path d="M250.962 249.566C264.254 249.566 275.028 238.791 275.028 225.5C275.028 212.208 264.254 201.434 250.962 201.434C237.671 201.434 226.896 212.208 226.896 225.5C226.896 238.791 237.671 249.566 250.962 249.566Z" fill="#000103"/>
<path d="M206.599 268.068L261.272 247.131C247.377 268.373 233.152 289.445 233.152 289.445L201.604 279.264L206.599 268.068Z" fill="white"/>
<path d="M293.07 199.427C292.149 205.964 235.02 290.587 235.02 290.587L202.861 280.209L244.074 187.958L244.162 187.979C246.251 178.314 253.987 170.387 264.329 168.546C277.986 166.126 291.022 175.227 293.447 188.884C294.089 192.509 293.918 196.082 293.07 199.427Z" fill="#000103"/>
<path d="M167.79 242.596C184.04 242.596 197.213 229.423 197.213 213.173C197.213 196.923 184.04 183.75 167.79 183.75C151.54 183.75 138.367 196.923 138.367 213.173C138.367 229.423 151.54 242.596 167.79 242.596Z" fill="#000103"/>
<path d="M229.864 228.821C199.66 235.895 179.182 240.694 176.023 241.433C175.997 241.449 175.966 241.454 175.93 241.459C173.344 242.204 170.614 242.597 167.791 242.597C151.471 242.597 138.238 229.364 138.238 213.044C138.238 198.053 149.403 185.669 163.871 183.75C163.923 183.745 163.974 183.735 164.031 183.73L261.929 168.729C261.929 168.729 266.107 174.717 261.929 186.77C257.865 198.488 239.756 202.997 229.864 228.821Z" fill="#000103"/>
<path d="M296.84 132.716C296.84 132.716 292.899 139.821 288.364 153.074C285.339 150.949 246.944 126.392 246.944 126.392L245.15 104.72L245.196 104.28C245.181 104.286 245.165 104.296 245.15 104.301C243.552 105.041 241.794 105.485 239.938 105.563C232.243 105.894 225.629 99.7144 225.459 92.0148C225.386 88.7932 226.415 85.7992 228.199 83.4154C232.409 82.9086 237.404 81.5073 239.333 77.8203C239.726 77.8203 240.108 77.841 240.486 77.872C240.775 77.8979 241.06 77.9392 241.334 77.9858C241.36 77.991 241.38 77.991 241.401 77.9961C244.447 78.4512 247.187 80.0852 249.194 82.4225C255.068 89.2741 285.417 119.887 296.84 132.716Z" fill="#FFC366" stroke="black" stroke-width="0.775654" stroke-miterlimit="10" stroke-linejoin="round"/>
<path d="M249.095 107.073C249.188 116.117 237.098 150.168 237.098 150.168L235.309 175.465H231.053C208.44 175.465 188.858 193.258 171.338 193.258C161.487 193.258 153.653 187.441 142.567 187.441C131.485 187.441 124.654 196.444 124.654 196.444C124.654 196.444 124.158 179.871 134.66 167.688C145.162 155.505 160.024 148.007 163.592 134.929C172.114 109.87 181.127 82.5466 203.854 78.1461C212.344 77.2618 231.069 77.8255 239.332 77.8255C239.725 77.8255 240.108 77.8461 240.485 77.8772" fill="#FFC366"/>
<path d="M249.095 107.073C249.188 116.117 237.098 150.168 237.098 150.168L235.309 175.465H231.053C208.44 175.465 188.858 193.258 171.338 193.258C161.487 193.258 153.653 187.441 142.567 187.441C131.485 187.441 124.654 196.444 124.654 196.444C124.654 196.444 124.158 179.871 134.66 167.688C145.162 155.505 160.024 148.007 163.592 134.929C172.114 109.87 181.127 82.5466 203.854 78.1461C212.344 77.2618 231.069 77.8255 239.332 77.8255C239.725 77.8255 240.108 77.8461 240.485 77.8772" stroke="black" stroke-width="0.775654" stroke-miterlimit="10" stroke-linejoin="round"/>
<path d="M287.775 151.844H278.203V167.683H287.775V151.844Z" fill="white" stroke="black" stroke-width="0.775654" stroke-miterlimit="10"/>
<path d="M182.32 125.166C182.419 125.321 211.552 171.069 211.552 171.069C213.579 174.777 217.406 177.145 221.625 177.31L279.215 168.639L281.397 150.168L234.941 147.024C230.835 139.583 219.645 118.712 215.492 108.613" fill="#FFC366"/>
<path d="M182.32 125.166C182.419 125.321 211.552 171.069 211.552 171.069C213.579 174.777 217.406 177.145 221.625 177.31L279.215 168.639L281.397 150.168L234.941 147.024C230.835 139.583 219.645 118.712 215.492 108.613" stroke="black" stroke-width="0.775654" stroke-miterlimit="10" stroke-linejoin="round"/>
<path d="M240.563 171.323C240.568 172.13 240.888 172.849 241.411 173.371C241.933 173.899 242.652 174.219 243.438 174.219L343.859 173.821C347.737 173.805 351.135 171.179 352.153 167.393L365.727 117.353C366.57 114.251 364.254 111.179 361.073 111.189L292.764 111.427C290.173 111.438 287.919 113.217 287.267 115.75L273.828 168.262L243.417 168.417C241.84 168.422 240.557 169.726 240.563 171.323Z" fill="white" stroke="black" stroke-width="0.775654" stroke-miterlimit="10"/>
<path d="M154.031 258.211L146.59 262.074L155.122 283.435L168.872 279.205L154.031 258.211Z" fill="white" stroke="black" stroke-width="0.775654" stroke-miterlimit="10" stroke-linejoin="round"/>
<path d="M206.139 281.27L199.541 301.674L226.022 301.716L231.436 288.892L206.139 281.27Z" fill="white" stroke="black" stroke-width="0.775654" stroke-miterlimit="10" stroke-linejoin="round"/>
<path d="M200.352 78.9751C214.272 88.464 223.776 86.3904 230.09 85.6561C238.721 84.6529 241.41 82.5276 241.41 82.5276C238.912 81.2349 236.161 80.6712 233.286 80.0352L234.382 75.5933C237.733 77.398 241.234 78.3494 244.228 78.6494C249.947 79.0217 254.141 75.3606 256.064 72.532C270.021 51.972 267.001 31.5723 267.001 31.5723C265.367 14.6113 242.377 8.40092 232.417 15.4232C226.274 19.7617 225.167 31.8877 225.167 31.8877C221.067 30.1503 216.33 32.0635 214.593 36.1745C212.855 40.2751 214.779 45.0118 218.879 46.7389L205.316 77.5634C205.316 77.5634 204.178 78.458 200.352 78.9751Z" fill="white" stroke="black" stroke-width="0.646379" stroke-miterlimit="10" stroke-linejoin="round"/>
<path d="M213.936 58.3839C211.909 53.368 211.366 47.5041 211.852 40.5852L212.328 31.0137L266.556 34.318C266.556 34.318 217.483 67.1695 213.936 58.3839Z" fill="black"/>
<path d="M266.204 41.5563C260.319 55.4612 242.914 61.775 229.009 55.8852C215.104 50.0006 209.183 34.1359 215.073 20.2361C218.522 6.94141 228.145 -2.00447 254.414 9.11842C268.314 15.003 272.089 27.6514 266.204 41.5563Z" fill="black"/>
<path d="M218.408 59.3594L218.868 46.7421C214.762 45.0046 212.849 40.268 214.587 36.1674C216.324 32.0667 221.061 30.1483 225.161 31.8857C225.161 31.8857 226.263 19.7597 232.406 15.4264C242.365 8.39893 265.361 14.6093 266.995 31.5703C266.995 31.5703 270.01 51.97 256.058 72.53C254.135 75.3586 249.946 79.0197 244.222 78.6474C237.344 77.9751 227.907 73.8331 223.357 63.9461" fill="white"/>
<path d="M218.408 59.3594L218.868 46.7421C214.762 45.0046 212.849 40.268 214.587 36.1674C216.324 32.0667 221.061 30.1483 225.161 31.8857C225.161 31.8857 226.263 19.7597 232.406 15.4264C242.365 8.39893 265.361 14.6093 266.995 31.5703C266.995 31.5703 270.01 51.97 256.058 72.53C254.135 75.3586 249.946 79.0197 244.222 78.6474C237.344 77.9751 227.907 73.8331 223.357 63.9461" stroke="black" stroke-width="0.646379" stroke-miterlimit="10" stroke-linejoin="round"/>
<path d="M232.304 74.3457C232.304 74.3457 225.975 70.2295 223.363 63.6934L232.304 74.3457Z" fill="white"/>
<path d="M232.304 74.3457C232.304 74.3457 225.975 70.2295 223.363 63.6934" stroke="black" stroke-width="0.517103" stroke-miterlimit="10" stroke-linejoin="round"/>
<path d="M254.627 44.2129L253.22 56.4682L249.094 55.9563" fill="white"/>
<path d="M254.627 44.2129L253.22 56.4682L249.094 55.9563" stroke="black" stroke-width="0.646379" stroke-miterlimit="10" stroke-linejoin="round"/>
<path d="M246.534 40.17C247.802 40.17 248.83 39.1421 248.83 37.8741C248.83 36.6061 247.802 35.5781 246.534 35.5781C245.266 35.5781 244.238 36.6061 244.238 37.8741C244.238 39.1421 245.266 40.17 246.534 40.17Z" fill="black"/>
<path d="M261.706 44.463C262.974 44.463 264.002 43.435 264.002 42.167C264.002 40.899 262.974 39.8711 261.706 39.8711C260.438 39.8711 259.41 40.899 259.41 42.167C259.41 43.435 260.438 44.463 261.706 44.463Z" fill="black"/>
<path d="M267.462 33.8162C267.462 33.8162 251.866 12.5788 240.707 26.3182C236.322 30.9256 230.453 35.0314 225.163 31.8874C217.003 26.8353 220.473 15.4849 220.473 15.4849L236.172 7.3457L260.817 15.7952C260.817 15.79 268.088 23.8982 267.462 33.8162Z" fill="black"/>
<path d="M207.319 73.0117L230.092 85.6549L227.253 100.656L200.354 78.9739L207.319 73.0117Z" fill="white" stroke="black" stroke-width="0.646379" stroke-miterlimit="10" stroke-linejoin="round"/>
<path d="M230.092 85.6559L237.998 99.3746L242.295 78.3699C242.295 78.3699 240.062 77.9924 238.019 77.2116C235.976 76.4308 234.384 75.5879 234.384 75.5879L230.092 85.6559Z" fill="white" stroke="black" stroke-width="0.646379" stroke-miterlimit="10" stroke-linejoin="round"/>
<path d="M232.671 108.614C233.305 108.614 233.819 107.795 233.819 106.784C233.819 105.773 233.305 104.953 232.671 104.953C232.037 104.953 231.523 105.773 231.523 106.784C231.523 107.795 232.037 108.614 232.671 108.614Z" fill="white" stroke="black" stroke-width="0.646379" stroke-miterlimit="10" stroke-linejoin="round"/>
<path d="M231.972 131.206C232.606 131.206 233.12 130.386 233.12 129.375C233.12 128.364 232.606 127.545 231.972 127.545C231.338 127.545 230.824 128.364 230.824 129.375C230.824 130.386 231.338 131.206 231.972 131.206Z" fill="white" stroke="black" stroke-width="0.646379" stroke-miterlimit="10" stroke-linejoin="round"/>
<path d="M360.748 157.263L352.894 155.474C351.373 155.086 350.448 153.54 350.835 152.019C351.223 150.499 352.769 149.574 354.29 149.961L362.144 151.751" fill="white"/>
<path d="M360.748 157.263L352.894 155.474C351.373 155.086 350.448 153.54 350.835 152.019C351.223 150.499 352.769 149.574 354.29 149.961L362.144 151.751" stroke="black" stroke-width="0.775654" stroke-miterlimit="10"/>
<path d="M359.3 162.89L351.445 161.101C349.925 160.713 348.999 159.167 349.387 157.646C349.775 156.126 351.321 155.201 352.841 155.588L360.696 157.378" fill="white"/>
<path d="M359.3 162.89L351.445 161.101C349.925 160.713 348.999 159.167 349.387 157.646C349.775 156.126 351.321 155.201 352.841 155.588L360.696 157.378" stroke="black" stroke-width="0.775654" stroke-miterlimit="10"/>
<path d="M362.087 151.649L354.258 149.875C352.737 149.482 351.817 147.946 352.2 146.421C352.531 145.128 353.689 144.27 354.956 144.27C355.183 144.27 355.421 144.295 355.654 144.352L360.432 145.366C362.516 145.893 364.264 147.284 365.277 149.177C365.293 149.208 365.308 149.239 365.329 149.27C366.947 152.29 367.361 155.811 366.477 159.121L365.613 162.347C364.931 164.897 361.983 166.469 359.61 167.627L359.532 167.663C358.363 168.186 357.05 168.299 355.804 167.984L349.971 166.701C348.451 166.319 347.53 164.773 347.913 163.247C348.233 161.954 349.392 161.106 350.669 161.106C350.896 161.106 351.134 161.132 351.367 161.189L359.155 162.963" fill="white"/>
<path d="M362.087 151.649L354.258 149.875C352.737 149.482 351.817 147.946 352.2 146.421C352.531 145.128 353.689 144.27 354.956 144.27C355.183 144.27 355.421 144.295 355.654 144.352L360.432 145.366C362.516 145.893 364.264 147.284 365.277 149.177C365.293 149.208 365.308 149.239 365.329 149.27C366.947 152.29 367.361 155.811 366.477 159.121L365.613 162.347C364.931 164.897 361.983 166.469 359.61 167.627L359.532 167.663C358.363 168.186 357.05 168.299 355.804 167.984L349.971 166.701C348.451 166.319 347.53 164.773 347.913 163.247C348.233 161.954 349.392 161.106 350.669 161.106C350.896 161.106 351.134 161.132 351.367 161.189L359.155 162.963" stroke="black" stroke-width="0.775654" stroke-miterlimit="10" stroke-linejoin="round"/>
<path d="M359.677 139.521C359.677 139.521 363.115 144.703 363.353 146.844C361.492 145.727 358.244 144.817 358.244 144.817L359.677 139.521Z" fill="white" stroke="black" stroke-width="0.775654" stroke-miterlimit="10" stroke-linejoin="round"/>
<path d="M436.477 37.873H343.729" stroke="#000103" stroke-width="1.03421" stroke-miterlimit="10"/>
<path d="M430.531 47.6738H381.929" stroke="#000103" stroke-width="1.03421" stroke-miterlimit="10"/>
<path d="M58.8371 220.604H0.523438" stroke="#000103" stroke-width="1.03421" stroke-miterlimit="10"/>
<path d="M55.0986 230.4H24.543" stroke="#000103" stroke-width="1.03421" stroke-miterlimit="10"/>
<path d="M240.893 58.0879L252.719 62.0644C252.719 62.0644 250.811 67.7784 244.539 65.5393C238.261 63.3003 240.893 58.0879 240.893 58.0879Z" fill="black"/>
<path d="M292.241 121.713H250.961" stroke="#000103" stroke-width="1.03421" stroke-miterlimit="10"/>
<path d="M290.447 127.545H262.41" stroke="#000103" stroke-width="1.03421" stroke-miterlimit="10"/>
</svg>
